# xmcd
#
# Track frame offsets:
#	150
#	11788
#	30888
#	46054
#	66075
#	81483
#	93709
#	105158
#	118626
#	130384
#	143705
#	153425
#
# Disc length: 2221 seconds
#
# Revision: 1
# Processed by: cddbd v1.5.2PL0 Copyright (c) Steve Scherf et al.
# Submitted via: audiograbber 1.83.01
#
DISCID=9508ab0c
DTITLE=Kenny Wayne - Borned With The Blues Raised On Rock'n'Roll
DYEAR=1982
DGENRE=Blues
TTITLE0=Hang Up My Rock'n'Roll Shoes
TTITLE1=I Wanna Go Home
TTITLE2=Ooh Poo Pah Doo
TTITLE3=There Is Something On Your Mind
TTITLE4=Turn On Your Love Light
TTITLE5=Driving Wheel
TTITLE6=I Need Your Loving Everyday
TTITLE7=St. James Infirmary
TTITLE8=Baby Come On Home
TTITLE9=Tell It Like It Is
TTITLE10=Texarkana Baby
TTITLE11=Mathilda
EXTD=
EXTT0=
EXTT1=
EXTT2=
EXTT3=
EXTT4=
EXTT5=
EXTT6=
EXTT7=
EXTT8=
EXTT9=
EXTT10=
EXTT11=
PLAYORDER=
